<svg xmlns="http://www.w3.org/2000/svg" width="512" height="512" viewBox="0 0 135.467 135.467" id="chinese-noddle"><path d="M126.355 166.694a1.323 1.323 0 0 0-.25.015l-91.866 14.893a1.323 1.323 0 0 0-1.097 1.494l.669 4.645.448 4.707a1.323 1.323 0 0 0 1.42 1.193l2.178-.169.045 43.936h-30.8a1.323 1.323 0 0 0-1.322 1.323c0 13.2 4.812 24.866 10.727 33.332 2.958 4.232 6.192 7.67 9.287 10.115 2.632 2.08 5.097 3.284 7.403 3.76v4.58a1.323 1.323 0 0 0 1.321 1.322h54.004a1.323 1.323 0 0 0 1.323-1.322v-4.578c2.306-.476 4.77-1.68 7.404-3.762 3.095-2.446 6.327-5.883 9.285-10.115 5.916-8.466 10.729-20.132 10.729-33.332a1.323 1.323 0 0 0-1.324-1.323H50.528l.313-44.943 77.625-6.02A1.323 1.323 0 0 0 129.68 185l-.762-7.994a1.323 1.323 0 0 0-.211-.6 1.323 1.323 0 0 0 .062-.63l-1.144-7.95a1.323 1.323 0 0 0-1.271-1.132zm-1.157 2.842.764 5.284-89.71 11.305-.308-2.12zm1.213 9.062.508 5.312-76.06 5.899.012-1.672.007-.988zm-78.18 8.852-.027 3.78a1.323 1.323 0 0 0 0 .01l-.32 45.892h-2.352l-.081-49.368zm-5.427.613.032 18.99.051 30.078h-2.339l-.05-48.806zm-4.952.56.002 2.195-1.084.085-.203-2.133zm-29.31 51.43H114.5c-.317 12.003-4.69 22.706-10.133 30.494-2.823 4.041-5.907 7.304-8.758 9.557-2.85 2.253-5.503 3.447-7.171 3.554a1.323 1.323 0 0 0-1.237 1.32v4.217H35.843v-4.216a1.323 1.323 0 0 0-1.238-1.32c-1.669-.108-4.32-1.302-7.17-3.555-2.851-2.253-5.937-5.516-8.76-9.557-5.442-7.788-9.816-18.491-10.133-30.494z" color="#000" font-family="sans-serif" font-weight="400" overflow="visible" transform="translate(0 -161.533)" style="line-height:normal;font-variant-ligatures:normal;font-variant-position:normal;font-variant-caps:normal;font-variant-numeric:normal;font-variant-alternates:normal;font-feature-settings:normal;text-indent:0;text-align:start;text-decoration-line:none;text-decoration-style:solid;text-decoration-color:#000;text-transform:none;text-orientation:mixed;shape-padding:0;isolation:auto;mix-blend-mode:normal"></path></svg>